<svg xmlns="http://www.w3.org/2000/svg" height="800" width="1200" viewBox="-78.99315 -138.29975 684.6073 829.7985"><g fill="#fff" stroke="#292f6d" stroke-width="3.5"><path d="M167.563 443.368c20.564 11.07 35.058 4.755 43.853 3.58l11.372 24.396c-18.742 7.46-59.144-8.303-55.225-27.976z"/><path d="M140.162 405.842c30.149 15.282 62.126 5.236 82.921.222l10.311 23.335c-15.62 45.957-95.128 22.694-93.232-23.557z"/><path d="M115.544 356.251c22.888 31.047 66.914 40.679 87.38 32.553l-.218 32.514c-37.143-1.067-83.32-.99-87.162-65.067z"/><path d="M98.164 314.174c14.847 21.64 63.434 56.94 96.442 51.781l10.288 22.779c-29.897 19.846-106.93-9.57-106.73-74.56z"/><path d="M84.949 275.142c12.829 22.23 62.741 61.513 94.258 59.454l12.291 34.892c-35.068 6.116-114.771-43.755-106.549-94.346z"/><path d="M74.29 241.702c15.208 26.477 63.226 57.651 92.583 59.905l9.62 37.53c-38.46-4.538-112.716-57.205-102.203-97.435z"/><path d="M64.05 206.707c24.063 31.916 66.023 56.867 91.056 58.02l7.16 40.06c-38.657-6.293-106.943-48.704-98.216-98.08z"/><path d="M53.171 168.626c40.024 43.473 70.756 58.112 93.051 61.633l3.925 37.56c-36.001-4.563-107.63-52.201-96.976-99.193z"/><path d="M43.012 121.821c34.347 49.235 77.044 68.08 95.672 77.03l1.48 34.328c-28.83-4.593-113.227-53.97-97.152-111.358z"/><path d="M32.83 82.185c43.168 50.688 57.333 59.764 103.186 86.377l-2.474 33.167c-11.149-4.937-110.698-54.36-100.711-119.544z"/><path d="M21.599 37.599c39.248 49.461 69.71 69.351 110.77 95.61l-3.895 35.123c-23.49-4.7-116.997-73.427-106.875-130.733zm327.754 407.39c-20.565 11.07-35.059 4.755-43.854 3.58l-11.371 24.396c18.741 7.46 59.143-8.303 55.225-27.976z"/><path d="M372.602 413.146c-30.148 15.282-62.125 5.236-82.92.222l-1.812 24.085c23.035 33.857 90.028 16.376 84.732-24.307z"/><path d="M403.043 365.159c-21.45 28.526-73.277 27.969-99.396 20.91l-10.4 32.898c41.85 16.604 113.168 8.28 109.796-53.808z"/><path d="M416.6 331.478c-20.51 20.696-67.014 35.135-93.692 31.031l-17.22 27.264c43.134 9.542 109.94 2.648 110.913-58.295z"/><path d="M325.516 366.292c41.607 7.18 119.703-27.58 108.3-77.846-19.244 21.098-69.366 49.403-96.008 48.204"/><path d="M446.475 252.756c-22.556 28.518-111.864 64.398-136.717 65.4l-3.221 32.434c41.077 4.597 155.756-43.667 139.938-97.834z"/><path d="M459.687 215.602c-27.983 30.937-70.083 50.482-93.62 52.01l-10.341 39.884c38.824-3.428 111.192-43.432 103.96-91.894z"/><path d="M470.718 178.43c-40.024 43.473-72.002 50.309-94.297 53.83l-8.875 39.681c36.008-4.55 114.702-44.768 103.172-93.511z"/><path d="M480.57 134.55c-42.665 51.327-77.954 59.66-99.56 66.07l.993 34.681c36.384-.23 117.274-50.161 98.568-100.751z"/><path d="M492.166 88.902c-43.168 50.689-59.1 55.169-104.953 81.782l-1.415 33.167c25.24-3.213 117.407-49.826 106.368-114.949z"/><path d="M505.166 42.902c-35.858 49.122-67.004 65.934-113.953 92.782l2.835 34.417c26.58-4.185 123.795-69.467 111.118-127.199z"/><path d="M522.894 10.702c-42.246 34.319-87.873 75.219-132.067 112.46l8.485 13.435c15.31-9.13 94.665-44.217 123.582-125.895zM3.87 5.399c42.246 34.319 86.105 77.693 130.3 114.934l-8.486 13.435C113.541 124.638 34.182 87.077 3.87 5.398zm332.725 356.68c19.806-5.476 38.33-43.04 19.838-55.341-7.85 18.338-52.74 12.192-62.993 15.863"/><path d="M332.779 327.7c18.987 1.919 48.234-33.588 33.903-50.958-14.321 16.789-74.821 24.572-83.396 27.265"/><path d="M379.009 245.452c-14.321 16.788-29.706 18.301-38.281 20.994l-12.158 34.172c30.373-3.464 57.218-32.218 50.439-55.166z"/><path d="M387.984 212.738c-12.402 18.252-25.01 22.145-33.24 25.758l-9.188 30.996c27.861-3.945 51.448-34.666 42.428-56.754z"/><path d="M393.984 186.488c-12.402 18.252-25.01 22.395-33.24 26.008l-8.188 28.746c28.293-4.593 53.605-37.402 41.428-54.754z"/><path d="M405.234 155.238c-13.35 21.566-33.577 34.255-41.49 36.758l-6.188 24.246c28.74-5.254 54.38-35.005 47.678-61.004z"/><path d="M409.484 123.738c-13.35 21.566-30.077 32.505-37.99 35.008l-12.438 37.246c29.003-5.685 67.479-48.853 50.428-72.254z"/><path d="M418.545 99.45c-11.894 7.658-44.435 39.44-62.739 53.923-24.39 24.19-16.192 38.415-12.619 58.075 4.794 26.37-3.531 50.751-15.81 77.235l6.585 4.09c3.026-1.42 32.198-42.388 31.109-77.977-.92-30.083 13.327-52.736 18.871-57.442 26.162-22.206 38.895-42.653 34.603-57.903zm-256.94 201.985c12.274 18.338 49.555 26.91 57.759 30.58l7.32 9.231c-32.798 31.686-76.94-3.868-65.08-39.811z"/><path d="M153.3 269.317c10.795 23.482 32.655 29.34 37.333 27.616l6.785 24.936c-16.365 2.352-51.376-11.985-44.118-52.552z"/><path d="M143.57 238.39c11.491 22.165 29.457 33.11 39.871 32.309l13.927 30.282c-20.253 8.586-64.425-32.845-53.798-62.59z"/><path d="M135.71 208.672c6.905 21.001 32.081 26.742 40.311 30.354l7.42 29.759c-30.27-.872-59.989-33.596-47.73-60.113z"/><path d="M129.003 183.306c12.403 18.252 30.49 23.81 38.72 27.422l4.83 30.514c-28.142-4.377-52.95-36.617-43.55-57.936z"/><path d="M120.405 153.47c10.98 22.356 38.788 32.754 48.56 34.637l-4.948 25.306c-27.615-7.006-49.849-34.668-43.612-59.943z"/><path d="M113.857 117.728c13.35 21.565 31.845 38.515 39.758 41.018l12.084 31.943c-28.785-6.337-65.131-36.144-51.842-72.961z"/><path d="M107.064 96.45c11.894 7.658 43.685 40.19 61.989 54.673 27.534 24.19 11.942 41.78 10.04 61.739-3.497 36.69 10.016 66.28 17.321 81.99 2.164 4.653 1.185 25.808-9.167 18.834-3.026-1.421-31.116-64.054-29.959-99.64.975-30.005-4.893-48.791-14.371-57.442-24.294-22.17-40.646-43.151-35.853-60.153z"/></g><g fill="#fff" stroke="#292f6d" stroke-width="3.5"><path d="M468.64 424.647c-24.363 19.326-45.691 36.691-93.934 61.865l22.522 46.202c2.029 3.4 9.166 4.789 13.315 2.424 30.477-17.37 58.245-38.266 93.542-67.545zm-420.015-4.931c23.233 19.716 47.166 39.494 93.593 65.703L115.08 527.89c-2.094 3.267-9.127 4.4-13.113 1.95-29.282-17.995-55.8-39.358-89.421-69.177z"/><path d="M97.459 420.996c15.375 11.933-4.92 18.436 55.464 46.561l-35.888 56.154s-.902-7.12-5.612-10.538c-16.162-12.758-31.438-22.863-46.985-33.777-6.742-4.733-4.598-6.73-.227-12.396zm320.587.929c-16.084 11.654 11.13 19.109-51.417 45.77l29.62 62.88c-.276.898-1.084-8.126 5.273-13.152 16.914-12.47 34.517-23.102 50.743-33.71 7.037-4.601 4.916-6.71.645-12.631z"/><path d="M97.375 420.966c69.974 49.807 183.921 94.225 320.574.826l36.563 51.378c-.858-1.186-5.834-2.751-9.637.296-152.82 94.22-255.849 71.372-374.47-4.031-4.3-1.696-5.795-.484-7.454-.088z"/></g><g fill="#292f6d"><path d="M323.991 508.82c-.84-4.473-.3-5.172 4.592-5.954 3.25-.52 3.98-1.006 3.576-2.382-.28-.95-.813-3.452-1.187-5.558-.374-2.106-1.206-4.032-1.85-4.279-.644-.247-4.441.239-8.44 1.08-3.997.84-7.63 1.529-8.072 1.529-.88 0-3.48-11.918-2.758-12.64.245-.245 2.102-.714 4.126-1.043 3.11-.505 3.762-.289 4.202 1.394.52 1.986.542 1.986 9.939-.03 5.18-1.112 9.634-1.806 9.897-1.543.264.263.748 2.253 1.077 4.42.328 2.169 1.465 7.392 2.525 11.609 2.209 8.788 2.383 11.434.814 12.403-1.285.794-14.795 4.388-16.592 4.413-.662.01-1.494-1.528-1.849-3.418zm42.525-18.314c-1.77-4.263-4.52-10.342-6.113-13.51l-2.897-5.76 10.77-5.082c5.923-2.795 11.219-5.165 11.769-5.268.55-.102 1.489-.492 2.086-.866.597-.373 2.397-.344 4 .066 2.471.632 3.636 2.235 7.668 10.55 6.699 13.815 6.706 13.883 1.799 16.096-2.24 1.01-4.241 1.654-4.446 1.43-.205-.223-2.052-3.78-4.105-7.906-5.312-10.673-4.85-10.36-10.848-7.348-6.319 3.174-6.152 3.02-4.965 4.574.535.7 2.603 4.763 4.595 9.028l3.621 7.754-3.913 1.996c-2.152 1.098-4.338 1.996-4.859 1.996-.52 0-2.394-3.487-4.162-7.75zm-20.479-6.272c-1.491-3.901-2.549-7.207-2.351-7.346.197-.14 2.232-.963 4.522-1.829l4.163-1.574 2.94 7.325 2.942 7.324-2.604.994c-6.917 2.64-6.69 2.756-9.612-4.894zm-136.296 31.889c-2.464-.71-3.167-1.386-2.764-2.66.655-2.073 2.403-10.41 3.192-15.223l.577-3.515-8.894-1.798c-11.447-2.314-11.509-2.356-10.223-7.014.776-2.808 1.462-3.633 2.726-3.276.93.262 6.64 1.48 12.69 2.705s11.6 2.774 12.335 3.441c1.111 1.01 1.057 2.701-.322 10.093-3.768 20.202-3.135 19.03-9.317 17.247z"/><path d="M189.455 512.09l-3.59-.957 1.688-7.189c.93-3.953 1.989-7.114 2.355-7.024.366.091 2.46.468 4.652.838 2.192.37 3.985.883 3.985 1.138 0 3-3.443 14.335-4.33 14.257-.643-.057-2.786-.535-4.76-1.062zm-19.708-6.001c-.92-.95-1.197-2.877-2.131-5.374-1.107-2.958-2.3-6.521-2.65-7.918-.35-1.398-.972-2.541-1.38-2.541-.408 0-2.689 2.44-5.068 5.421l-4.326 5.421-4.073-1.583c-2.24-.872-4.233-1.708-4.427-1.858-.195-.151 2.899-4.137 6.874-8.858l7.228-8.583-1.263-4.509c-.694-2.48-1.087-4.67-.874-4.87.213-.198 2.678.658 5.478 1.902 4.955 2.203 5.139 2.436 6.987 8.89 1.044 3.645 2.241 6.627 2.66 6.627l7.485-9.532 8.33 2.628-6.026 8.71c-3.314 4.79-6.026 9.438-6.026 10.33 0 .89.681 3.25 1.514 5.242.801 1.918 1.232 2.91.806 3.196zm-32.702-13.052c-2.2-1.118-4.146-2.16-4.325-2.315-.178-.155 2.662-6.169 6.31-13.364l6.636-13.081 3.94 2.01c2.166 1.105 3.939 2.158 3.939 2.34 0 .181-2.812 6.205-6.25 13.386l-6.25 13.056zm-13.815-6.926c-2.097-1.083-3.672-2.292-3.5-2.687 2.696-6.153 13.129-25.168 13.81-25.168.504 0 2.42 1.02 4.259 2.268l3.342 2.268-5.23 9.482c-2.876 5.215-6.048 10.905-7.048 12.644l-1.818 3.162zm-25.725-15.004c-1.903-1.145-3.612-2.22-3.798-2.388-.185-.168 2.008-4.144 4.876-8.836 2.867-4.692 4.966-9.175 4.664-9.962-.302-.787-3.059-2.867-6.126-4.621-3.067-1.755-5.576-3.733-5.576-4.395 0-.963 1.425-3.545 3.572-6.469.379-.516 17.808 11.004 19.178 12.676.688.84 1.25 2.015 1.25 2.613 0 .597-3.28 6.121-7.29 12.275l-7.29 11.19zm18.842-4.512l-3.697-2.54 2.664-4.15c5.723-8.913 5.67-8.87 8.259-6.625 1.253 1.087 2.861 1.976 3.574 1.976.801 0-.246 2.675-2.74 7-2.219 3.85-4.108 6.973-4.198 6.94-.09-.033-1.828-1.204-3.862-2.6z"/></g><path d="M188.534 82.61c46.285 16.722 71.631 57.588 77.49 84.885-61.56-25.209-77.552-64.801-77.49-84.885zm.346.518l76.768 84.492m57.027-39.933c-53.218 49.892-54.445 100.504-49.527 127.178 49.963-38.088 53.393-87.65 49.527-127.178zm-.142.607L273.043 254.6m35.855 71.015c49.527-38.961 45.63-72.427 43.777-107.928-38.831 29.695-43.77 55.706-43.987 80.457m42.845-79.1l-32.74 84.557m71.976 23.365c-47.652 16.762-59.462 67.651-67.058 100 60.386-29.594 65.568-75.35 67.058-100zm-1.387 1.104c-20.787 31.415-25.687 32.775-47.396 63.729" fill="#fff" stroke="#292f6d" stroke-width="3"/><g stroke="#292f6d"><path d="M230.387 460.759V65.996l27.929-45.5 27.928 45.5v394.763h-55.857zm27.929 0V20.496" fill="#fff" stroke-width="3"/><g transform="translate(188.135 -969.848)"><path fill="#fff" stroke-width="3.5" stroke-linecap="round" d="M42.805 1434.172h54.75v71h-54.75z"/><rect y="1505.297" x="36.68" ry="6.004" rx="6.004" height="16.25" width="67" fill="#fff" stroke-width="3" stroke-linecap="round"/><path d="M97.555 1460.422h-54.75m54.75 14h-54.75m54.75 16h-54.75" fill="none" stroke-width="3.5"/></g><path d="M278.242 468.696c-13.018 21.135-26.518 41.64-40.781 61.218a6.402 6.402 0 00-.813-.062 6.41 6.41 0 00-6.406 6.407c0 3.535 2.87 6.375 6.406 6.375 3.536 0 6.406-2.84 6.406-6.375 0-.639-.076-1.262-.25-1.844 16.703-23.599 28.977-42.175 41.75-62.75l-6.312-2.969z" fill="#fff" stroke-width="2.5"/><g fill="#fff"><path d="M218.206 447.314l-20.968 13.843 20.968 13.844h80.219l20.969-13.844-20.969-13.843h-80.219z" stroke-width="3.5"/><path d="M317.395 461.164H197.24" stroke-width="2.5"/></g></g><path d="M321.816 365.96a63.5 63.5 0 11-127 0 63.5 63.5 0 11127 0z" fill="#292f6d"/><path d="M209.066 337.526h32.9l16.35-28.434 16.35 28.434h32.9l-16.55 28.435 16.55 28.434h-32.9l-16.35 28.434-16.35-28.434h-32.9l16.55-28.434z" fill="#fff"/><path fill="#292f6d" d="M242.692 423.831h30.5v22.757h-30.5z"/><path d="M287.686 445.204c16.271 2.975 27.452-7.03 34.659-17.653-11.6 1.165-26.161 1.685-34.659 17.653zm20.932-20.84c19.088 4.413 26.358-8.087 31.03-20.904-11.375 2.552-24.515 4.03-31.03 20.904zm19.172-21.716c18.455-2.498 20.513-16.444 22.102-29.398-10.327 5.41-20.176 11.413-22.102 29.398zm8.223-25.36c16.413-7.08 13.33-21.479 13.027-34.618-8.526 7.947-15.449 17.12-13.027 34.618zm1.679-27.131c13.958-11.277 5.028-26.368.905-35.808-5.379 9.988-7.618 19.373-.905 35.808zm-8.902-25.795c8.61-16.485-4.77-28.712-12.774-35.071-1.463 11.565-.884 23.212 12.774 35.071zm-18.686-21.952c-3.304-21.733-17.415-24.245-23.818-26.273 1.183 12.53 5.916 20.352 23.818 26.273z" fill="#fff" stroke="#292f6d" stroke-width="3"/><path d="M292.144 294.86c-9.408-15.501-24.393-11.505-32.118-11.414 8.178 10.3 17.65 13.716 32.118 11.413zm-66.792.53c12.61-18.051 24.048-11.448 32.206-11.148-5.878 10.018-18.714 14.138-32.206 11.148zm3.021 149.139c-18.443 1.916-26.459-6.51-32.976-16.561 11.645.72 23.9.936 32.976 16.56zm-22.347-20.955c-18.475 2.363-27.993-11.104-31.972-23.205 10.609 2.808 24.812 6.546 31.972 23.205zm-17.925-22.87c-19.764-6.168-19.784-16.882-20.334-26.923 11.256 5.409 18.857 8.937 20.334 26.923zm-6.933-24.513c-16.549-7.148-15.579-22.099-12.902-34.052 9.36 4.764 15.749 15.972 12.902 34.052zm.698-27.007c-13.449-11.737-5.913-31.105-2.008-35.719 5.489 9.935 8.653 19.216 2.008 35.719zm8.418-26.766c-8.61-16.486 2.825-27.298 10.829-33.658 1.464 11.566 2.829 21.798-10.83 33.658z" fill="#fff" stroke="#292f6d" stroke-width="3"/><path d="M209.27 303.322c.694-20.13 14.18-24.327 22.273-27.39-1.364 12.426-5.034 21.086-22.273 27.39zm76.943 139.948c-4.496-17.436 2.52-27.913 11.138-36.26 1.854 9.024 2.077 22.782-11.138 36.26zm20.509-20.416c-10.83-16.401-1.6-30.23 5.001-35.493 3.737 10.868 6.397 21.371-5 35.493zm19.008-20.934c-17.221-16.173-10.607-25.388-7.496-34.581 7.556 8.216 15.194 20.557 7.496 34.58zm7.775-24.538c-17.687-6.347-14.816-22.516-17.923-31.737 13.391 6.685 19.76 11.982 17.923 31.737z" fill="#fff" stroke="#292f6d" stroke-width="3"/><path d="M334.936 351.106c-20.682-.481-26.464-19.31-25.508-23.515 16.715 5.763 19.964 6.303 25.508 23.515zm-7.72-25.416c-21.52 4.386-28.67-5.986-34.63-13.808 12.337-1.74 27.942-1.696 34.63 13.808zm-17.906-21.114c-17.876 11.76-29.168 1.994-34.954.135 15.46-10.178 21.145-9.838 34.954-.135zm-79.322 139.036c5.36-17.383-2.792-28.643-11.73-37.014-1.699 11.48-3.627 29.304 11.73 37.014zm-22.068-21.588c9.123-18.26 1.097-28.945-4.995-34.067-3.443 11.161-6.232 20.117 4.995 34.067zm-17.667-21.964c11.575-12.993 10.99-16.444 8.478-32.12-7.648 5.735-15.467 16.495-8.478 32.12zm-6.348-23.959c17.207-6.427 14.503-22.1 15.52-28.173-11.642 4.01-15.501 7.772-15.52 28.173z" fill="#fff" stroke="#292f6d" stroke-width="3"/><path d="M184.19 350.101c17.711.696 24.47-18.495 23.563-21.924-11.451 2.503-24.308 7.038-23.563 21.924zm7.86-25.906c14.659 7.002 25.992-3.883 31.474-10.881-10.964-3.664-21.626-4.669-31.474 10.88zm18.705-18.905c17.697 8.227 25.753-.001 31.742-1.517-16.223-9.178-18.42-7.288-31.742 1.517zm61.382 141.35c-8.18-14.563.256-20.88 10.945-30.17 3.737 9.324-.574 26.891-10.945 30.17zm-27.559-.178c7.853-16.627-1.504-22.61-11.564-31.23-3.042 9.259 2.34 27.792 11.564 31.23z" fill="#fff" stroke="#292f6d" stroke-width="3"/><path d="M267.553 437.554a9.237 9.237 0 11-18.475 0 9.237 9.237 0 1118.475 0z" fill="#fff" stroke="#292f6d" stroke-width="2.936"/><path d="M207.197 202.743c47.139 12.88 75.67 53.168 81.076 82.502-59.145-16.588-82.423-59.092-81.076-82.502zm.257.297l80.444 81.83" fill="#fff" stroke="#292f6d" stroke-width="3"/></svg>